M48
; DRILL file {KiCad 9.0.1} date 2025-05-15T23:51:34-0400
; FORMAT={-:-/ absolute / metric / decimal}
; #@! TF.CreationDate,2025-05-15T23:51:34-04:00
; #@! TF.GenerationSoftware,Kicad,Pcbnew,9.0.1
; #@! TF.FileFunction,Plated,1,2,PTH
FMAT,2
METRIC
; #@! TA.AperFunction,Plated,PTH,ComponentDrill
T1C0.800
; #@! TA.AperFunction,Plated,PTH,ComponentDrill
T2C1.000
; #@! TA.AperFunction,Plated,PTH,ComponentDrill
T3C1.700
; #@! TA.AperFunction,Plated,PTH,ComponentDrill
T4C1.730
; #@! TA.AperFunction,Plated,PTH,ComponentDrill
T5C1.800
; #@! TA.AperFunction,Plated,PTH,ComponentDrill
T6C2.000
%
G90
G05
T1
X32.7Y-47.6
X32.7Y-121.4
X40.45Y-124.0
X45.6Y-129.19
X50.7Y-129.2
X54.25Y-50.0
X55.85Y-124.0
X60.5Y-132.6
X61.7Y-105.2
X61.7Y-108.4
X62.7Y-93.6
X64.45Y-116.8
X64.45Y-125.4
X66.05Y-66.4
X66.05Y-79.8
X66.65Y-105.2
X68.5Y-113.8
X69.3Y-56.8
X69.3Y-75.6
X69.85Y-83.2
X70.65Y-50.0
X70.7Y-132.6
X71.25Y-86.6
X71.3Y-121.8
X71.7Y-108.4
X71.8Y-71.0
X72.5Y-93.6
X72.65Y-116.75
X72.85Y-99.0
X72.85Y-104.2
X73.3Y-61.68
X73.85Y-113.8
X74.3Y-56.8
X74.3Y-75.6
X74.65Y-125.4
X76.3Y-109.8
X76.45Y-86.6
X76.65Y-96.0
X76.7Y-52.4
X77.45Y-58.6
X77.7Y-118.4
X78.85Y-105.0
X79.05Y-69.4
X79.1Y-91.0
X79.85Y-83.2
X80.45Y-113.8
X80.65Y-55.6
X81.05Y-76.0
X81.25Y-96.0
X81.3Y-109.8
X81.3Y-121.8
X81.45Y-66.4
X81.65Y-80.4
X82.85Y-118.4
X83.05Y-83.2
X83.6Y-61.68
X85.45Y-66.4
X85.45Y-120.6
X85.65Y-113.6
X86.05Y-76.0
X87.45Y-58.6
X88.05Y-63.2
X89.25Y-52.6
X89.25Y-69.4
X90.25Y-123.8
X90.65Y-55.6
X93.65Y-113.6
X93.7Y-120.4
X95.65Y-62.4
X95.7Y-83.15
X96.65Y-80.0
X96.7Y-118.2
X96.85Y-112.6
X97.1Y-98.0
X98.25Y-57.8
X100.25Y-123.8
X100.85Y-62.4
X100.85Y-66.4
X101.85Y-44.6
X101.85Y-49.6
X101.85Y-118.2
X101.95Y-142.6
X102.05Y-34.6
X105.45Y-40.0
X106.85Y-34.6
X106.85Y-112.8
X107.05Y-80.0
X107.05Y-98.0
X107.05Y-119.4
X107.1Y-84.2
X107.1Y-103.0
X107.1Y-123.8
X107.1Y-142.6
X109.05Y-136.4
X110.65Y-26.0
X110.65Y-51.6
X110.7Y-31.0
X110.7Y-45.2
X114.1Y-98.05
X114.1Y-114.6
X114.25Y-130.8
X114.5Y-142.6
X115.05Y-26.0
X115.05Y-35.8
X115.65Y-51.6
X115.7Y-40.0
X117.25Y-123.8
X117.3Y-136.4
X118.05Y-30.0
X118.1Y-111.0
X118.3Y-35.0
X118.45Y-76.2
X118.45Y-82.0
X118.45Y-94.2
X119.65Y-39.6
X119.9Y-142.6
X120.45Y-106.6
X120.5Y-53.8
X120.65Y-45.2
X120.65Y-48.8
X120.65Y-72.0
X120.65Y-89.8
X120.9Y-134.4
X122.25Y-86.6
X122.25Y-103.0
X122.25Y-119.2
X122.25Y-126.8
X122.5Y-32.4
X123.05Y-76.2
X123.25Y-94.4
X123.25Y-111.0
X123.25Y-142.6
X124.25Y-114.6
X124.3Y-98.0
X124.45Y-130.8
X124.7Y-35.6
X124.85Y-122.2
X125.45Y-51.6
X126.45Y-82.0
X127.05Y-39.6
X127.25Y-103.0
X127.45Y-97.8
X127.45Y-126.8
X128.85Y-114.0
X128.85Y-119.2
X128.9Y-142.6
X129.45Y-91.2
X129.45Y-109.0
X129.85Y-104.85
X130.45Y-39.6
X130.45Y-43.8
X131.05Y-134.4
X132.45Y-100.0
X132.45Y-114.0
X132.45Y-119.2
X132.65Y-35.6
X133.5Y-95.0
X133.85Y-147.2
X134.65Y-124.2
X134.7Y-55.8
X134.7Y-129.4
X134.7Y-134.4
X134.85Y-49.8
X136.25Y-35.6
X136.5Y-147.2
X137.45Y-91.2
X137.5Y-109.0
X137.7Y-86.6
X138.45Y-28.0
X138.45Y-43.8
X140.45Y-39.6
X140.85Y-35.6
X141.7Y-95.0
X141.85Y-143.2
X142.45Y-100.0
X142.45Y-104.8
X142.45Y-114.0
X142.45Y-119.2
X142.45Y-124.2
X142.45Y-129.4
X142.5Y-134.4
X142.85Y-89.05
X144.5Y-35.6
X144.65Y-41.6
X144.85Y-49.8
X145.45Y-65.4
X147.65Y-99.0
X147.65Y-115.0
X147.65Y-122.0
X147.65Y-125.0
X147.65Y-128.2
X147.65Y-133.4
X147.7Y-90.6
X147.7Y-143.2
X149.45Y-147.2
X149.85Y-48.4
X150.05Y-106.35
X151.1Y-55.8
X152.45Y-82.8
X152.45Y-90.6
X152.45Y-99.0
X153.65Y-95.15
X153.9Y-145.6
X154.05Y-122.0
X154.05Y-137.8
X154.3Y-131.2
X154.45Y-41.6
X154.65Y-35.8
X154.65Y-48.4
X154.85Y-106.35
X155.05Y-70.6
X156.45Y-28.0
X157.7Y-99.0
X157.85Y-115.0
X158.85Y-102.0
X159.25Y-90.6
X160.25Y-70.6
X160.45Y-124.8
X160.45Y-128.2
X160.7Y-35.2
X160.7Y-45.4
X161.85Y-83.8
X162.85Y-99.0
X162.85Y-115.0
X163.65Y-43.0
X163.85Y-37.8
X164.25Y-90.8
X164.65Y-121.0
X165.85Y-74.6
X166.45Y-48.0
X166.45Y-62.8
X166.9Y-112.8
X168.45Y-40.4
X168.85Y-95.2
X168.85Y-102.0
X171.85Y-117.4
X172.25Y-48.0
X172.25Y-62.8
X172.85Y-142.0
X173.85Y-37.75
X173.85Y-42.8
X175.9Y-31.2
X175.9Y-74.6
X177.5Y-121.0
X177.85Y-100.6
X177.85Y-105.2
X178.45Y-53.0
X178.45Y-111.6
X178.65Y-40.4
X180.85Y-31.2
X180.85Y-34.8
X180.85Y-45.0
X180.85Y-91.4
X180.85Y-95.4
X182.05Y-117.4
X184.45Y-101.2
X184.45Y-111.6
X185.7Y-142.2
X186.05Y-36.4
X186.05Y-44.4
X186.1Y-52.95
X186.45Y-121.0
X189.05Y-111.6
X193.7Y-95.4
X196.45Y-91.4
X197.7Y-114.95
X199.25Y-121.0
X202.1Y-35.8
X202.1Y-40.4
X204.05Y-74.6
X204.1Y-62.0
X206.65Y-106.2
X206.7Y-119.4
X207.25Y-127.4
X207.3Y-135.45
X208.45Y-74.6
X208.45Y-84.8
X212.9Y-115.0
X213.45Y-45.0
X213.5Y-37.8
X215.45Y-146.0
X217.05Y-103.2
X217.05Y-115.6
X217.05Y-118.8
X218.7Y-139.0
X219.05Y-71.4
X219.1Y-61.6
X219.25Y-146.0
X221.5Y-33.0
X222.25Y-51.8
X222.85Y-98.4
X222.9Y-113.4
X226.25Y-85.6
X226.25Y-146.0
X226.3Y-98.4
X231.45Y-67.6
X231.45Y-74.4
X233.45Y-84.0
X233.45Y-139.0
X234.45Y-36.0
X234.45Y-44.2
X242.05Y-141.2
X243.45Y-63.0
X243.45Y-84.0
X246.45Y-74.4
X246.5Y-67.6
X248.45Y-84.0
T3
X46.8Y-144.8
X50.76Y-144.8
X54.72Y-144.8
X58.68Y-144.8
X62.64Y-144.8
X66.6Y-144.8
X70.56Y-144.8
X74.52Y-144.8
X78.48Y-144.8
X94.321Y-73.2
X98.281Y-73.2
X102.241Y-73.2
X161.65Y-131.2
X166.85Y-136.2
X171.9Y-131.2
X180.45Y-131.0
X185.7Y-136.4
X190.45Y-131.05
X190.881Y-80.4
X194.841Y-80.4
X198.801Y-80.4
X234.3Y-103.8
X238.45Y-100.2
X243.9Y-98.95
X249.5Y-100.8
X250.5Y-120.0
X253.5Y-104.6
X254.05Y-115.8
X254.85Y-110.4
T4
X118.05Y-69.0
X125.45Y-61.4
X127.45Y-76.2
X130.45Y-82.0
X135.45Y-69.0
X145.45Y-61.4
X147.65Y-76.4
X147.7Y-82.0
X162.85Y-80.6
X165.7Y-85.2
X175.45Y-80.6
X177.85Y-59.6
X183.25Y-85.2
X198.25Y-59.6
T5
X39.5Y-108.0
X45.55Y-101.8
X45.9Y-77.2
X46.85Y-32.6
X46.9Y-44.8
X48.6Y-81.3
X51.05Y-77.0
X52.3Y-108.0
X87.65Y-44.8
X93.05Y-32.6
X206.45Y-93.2
X210.9Y-100.4
X215.05Y-93.2
T2
X39.7Y-54.8G85X37.2Y-54.8
G05
X57.4Y-91.1G85X54.9Y-91.1
G05
X85.0Y-136.85G85X84.0Y-136.85
G05
X86.45Y-87.3G85X86.45Y-88.3
G05
X86.45Y-94.1G85X86.45Y-95.1
G05
X86.45Y-107.5G85X86.45Y-108.5
G05
X86.5Y-100.5G85X86.5Y-101.5
G05
X92.85Y-139.05G85X91.85Y-139.05
G05
X100.4Y-136.8G85X99.4Y-136.8
G05
X101.7Y-103.8G85X101.7Y-104.8
G05
X101.75Y-90.45G85X101.75Y-91.45
G05
X195.05Y-30.2G85X193.05Y-30.2
G05
X195.05Y-50.0G85X193.05Y-50.0
G05
T6
X251.2Y-48.55G85X248.2Y-48.55
G05
X255.85Y-49.05G85X255.85Y-52.05
G05
X255.95Y-72.45G85X255.95Y-75.45
G05
M30
