%TF.GenerationSoftware,KiCad,Pcbnew,9.0.1*%
%TF.CreationDate,2025-05-15T23:51:34-04:00*%
%TF.ProjectId,sp9000-12-inch-crt-a2,73703930-3030-42d3-9132-2d696e63682d,rev?*%
%TF.SameCoordinates,Original*%
%TF.FileFunction,Drillmap*%
%TF.FilePolarity,Positive*%
%FSLAX45Y45*%
G04 Gerber Fmt 4.5, Leading zero omitted, Abs format (unit mm)*
G04 Created by KiCad (PCBNEW 9.0.1) date 2025-05-15 23:51:34*
%MOMM*%
%LPD*%
G01*
G04 APERTURE LIST*
%ADD10C,0.050000*%
%ADD11C,0.200000*%
%ADD12C,0.350000*%
%ADD13C,0.500000*%
G04 APERTURE END LIST*
D10*
X2800000Y-15165000D02*
G75*
G02*
X2450000Y-14815000I0J350000D01*
G01*
X26480514Y-2315000D02*
X2750000Y-2315000D01*
X2450000Y-14815000D02*
X2450000Y-2615000D01*
X26480514Y-2315000D02*
G75*
G02*
X26861630Y-2696111I6J-381110D01*
G01*
X26853553Y-14815000D02*
X26861625Y-2696111D01*
X26853553Y-14815000D02*
G75*
G02*
X26500000Y-15168553I-353553J0D01*
G01*
X26500000Y-15168553D02*
X2800000Y-15165000D01*
X2450000Y-2615000D02*
G75*
G02*
X2750000Y-2315000I300000J0D01*
G01*
D11*
D12*
X3625000Y-3455000D02*
X3975000Y-3805000D01*
X3975000Y-3455000D02*
X3625000Y-3805000D01*
X3625000Y-13625000D02*
X3975000Y-13975000D01*
X3975000Y-13625000D02*
X3625000Y-13975000D01*
X25225000Y-3455000D02*
X25575000Y-3805000D01*
X25575000Y-3455000D02*
X25225000Y-3805000D01*
X25225000Y-13625000D02*
X25575000Y-13975000D01*
X25575000Y-13625000D02*
X25225000Y-13975000D01*
D13*
X4140000Y-6040000D02*
G75*
G02*
X3640000Y-6040000I-250000J0D01*
G01*
X3640000Y-6040000D02*
G75*
G02*
X4140000Y-6040000I250000J0D01*
G01*
X5145000Y-6240000D02*
G75*
G02*
X4645000Y-6240000I-250000J0D01*
G01*
X4645000Y-6240000D02*
G75*
G02*
X5145000Y-6240000I250000J0D01*
G01*
X5825000Y-8605000D02*
G75*
G02*
X5325000Y-8605000I-250000J0D01*
G01*
X5325000Y-8605000D02*
G75*
G02*
X5825000Y-8605000I250000J0D01*
G01*
X9725000Y-10410000D02*
G75*
G02*
X9225000Y-10410000I-250000J0D01*
G01*
X9225000Y-10410000D02*
G75*
G02*
X9725000Y-10410000I250000J0D01*
G01*
X9740000Y-9080000D02*
G75*
G02*
X9240000Y-9080000I-250000J0D01*
G01*
X9240000Y-9080000D02*
G75*
G02*
X9740000Y-9080000I250000J0D01*
G01*
D11*
X2708277Y-15482537D02*
X2708277Y-15282537D01*
X2708277Y-15282537D02*
X2755896Y-15282537D01*
X2755896Y-15282537D02*
X2784467Y-15292061D01*
X2784467Y-15292061D02*
X2803515Y-15311109D01*
X2803515Y-15311109D02*
X2813039Y-15330156D01*
X2813039Y-15330156D02*
X2822562Y-15368251D01*
X2822562Y-15368251D02*
X2822562Y-15396823D01*
X2822562Y-15396823D02*
X2813039Y-15434918D01*
X2813039Y-15434918D02*
X2803515Y-15453966D01*
X2803515Y-15453966D02*
X2784467Y-15473013D01*
X2784467Y-15473013D02*
X2755896Y-15482537D01*
X2755896Y-15482537D02*
X2708277Y-15482537D01*
X2908277Y-15482537D02*
X2908277Y-15349204D01*
X2908277Y-15387299D02*
X2917801Y-15368251D01*
X2917801Y-15368251D02*
X2927324Y-15358728D01*
X2927324Y-15358728D02*
X2946372Y-15349204D01*
X2946372Y-15349204D02*
X2965420Y-15349204D01*
X3032086Y-15482537D02*
X3032086Y-15349204D01*
X3032086Y-15282537D02*
X3022562Y-15292061D01*
X3022562Y-15292061D02*
X3032086Y-15301585D01*
X3032086Y-15301585D02*
X3041610Y-15292061D01*
X3041610Y-15292061D02*
X3032086Y-15282537D01*
X3032086Y-15282537D02*
X3032086Y-15301585D01*
X3155896Y-15482537D02*
X3136848Y-15473013D01*
X3136848Y-15473013D02*
X3127324Y-15453966D01*
X3127324Y-15453966D02*
X3127324Y-15282537D01*
X3260658Y-15482537D02*
X3241610Y-15473013D01*
X3241610Y-15473013D02*
X3232086Y-15453966D01*
X3232086Y-15453966D02*
X3232086Y-15282537D01*
X3489229Y-15482537D02*
X3489229Y-15282537D01*
X3489229Y-15282537D02*
X3555896Y-15425394D01*
X3555896Y-15425394D02*
X3622562Y-15282537D01*
X3622562Y-15282537D02*
X3622562Y-15482537D01*
X3803515Y-15482537D02*
X3803515Y-15377775D01*
X3803515Y-15377775D02*
X3793991Y-15358728D01*
X3793991Y-15358728D02*
X3774943Y-15349204D01*
X3774943Y-15349204D02*
X3736848Y-15349204D01*
X3736848Y-15349204D02*
X3717801Y-15358728D01*
X3803515Y-15473013D02*
X3784467Y-15482537D01*
X3784467Y-15482537D02*
X3736848Y-15482537D01*
X3736848Y-15482537D02*
X3717801Y-15473013D01*
X3717801Y-15473013D02*
X3708277Y-15453966D01*
X3708277Y-15453966D02*
X3708277Y-15434918D01*
X3708277Y-15434918D02*
X3717801Y-15415870D01*
X3717801Y-15415870D02*
X3736848Y-15406347D01*
X3736848Y-15406347D02*
X3784467Y-15406347D01*
X3784467Y-15406347D02*
X3803515Y-15396823D01*
X3898753Y-15349204D02*
X3898753Y-15549204D01*
X3898753Y-15358728D02*
X3917801Y-15349204D01*
X3917801Y-15349204D02*
X3955896Y-15349204D01*
X3955896Y-15349204D02*
X3974943Y-15358728D01*
X3974943Y-15358728D02*
X3984467Y-15368251D01*
X3984467Y-15368251D02*
X3993991Y-15387299D01*
X3993991Y-15387299D02*
X3993991Y-15444442D01*
X3993991Y-15444442D02*
X3984467Y-15463489D01*
X3984467Y-15463489D02*
X3974943Y-15473013D01*
X3974943Y-15473013D02*
X3955896Y-15482537D01*
X3955896Y-15482537D02*
X3917801Y-15482537D01*
X3917801Y-15482537D02*
X3898753Y-15473013D01*
X4079705Y-15463489D02*
X4089229Y-15473013D01*
X4089229Y-15473013D02*
X4079705Y-15482537D01*
X4079705Y-15482537D02*
X4070182Y-15473013D01*
X4070182Y-15473013D02*
X4079705Y-15463489D01*
X4079705Y-15463489D02*
X4079705Y-15482537D01*
X4079705Y-15358728D02*
X4089229Y-15368251D01*
X4089229Y-15368251D02*
X4079705Y-15377775D01*
X4079705Y-15377775D02*
X4070182Y-15368251D01*
X4070182Y-15368251D02*
X4079705Y-15358728D01*
X4079705Y-15358728D02*
X4079705Y-15377775D01*
X2247500Y-15711053D02*
X2447500Y-15911053D01*
X2447500Y-15711053D02*
X2247500Y-15911053D01*
X2689229Y-15702537D02*
X2813039Y-15702537D01*
X2813039Y-15702537D02*
X2746372Y-15778728D01*
X2746372Y-15778728D02*
X2774944Y-15778728D01*
X2774944Y-15778728D02*
X2793991Y-15788251D01*
X2793991Y-15788251D02*
X2803515Y-15797775D01*
X2803515Y-15797775D02*
X2813039Y-15816823D01*
X2813039Y-15816823D02*
X2813039Y-15864442D01*
X2813039Y-15864442D02*
X2803515Y-15883489D01*
X2803515Y-15883489D02*
X2793991Y-15893013D01*
X2793991Y-15893013D02*
X2774944Y-15902537D01*
X2774944Y-15902537D02*
X2717801Y-15902537D01*
X2717801Y-15902537D02*
X2698753Y-15893013D01*
X2698753Y-15893013D02*
X2689229Y-15883489D01*
X2898753Y-15883489D02*
X2908277Y-15893013D01*
X2908277Y-15893013D02*
X2898753Y-15902537D01*
X2898753Y-15902537D02*
X2889229Y-15893013D01*
X2889229Y-15893013D02*
X2898753Y-15883489D01*
X2898753Y-15883489D02*
X2898753Y-15902537D01*
X3089229Y-15702537D02*
X2993991Y-15702537D01*
X2993991Y-15702537D02*
X2984467Y-15797775D01*
X2984467Y-15797775D02*
X2993991Y-15788251D01*
X2993991Y-15788251D02*
X3013039Y-15778728D01*
X3013039Y-15778728D02*
X3060658Y-15778728D01*
X3060658Y-15778728D02*
X3079705Y-15788251D01*
X3079705Y-15788251D02*
X3089229Y-15797775D01*
X3089229Y-15797775D02*
X3098753Y-15816823D01*
X3098753Y-15816823D02*
X3098753Y-15864442D01*
X3098753Y-15864442D02*
X3089229Y-15883489D01*
X3089229Y-15883489D02*
X3079705Y-15893013D01*
X3079705Y-15893013D02*
X3060658Y-15902537D01*
X3060658Y-15902537D02*
X3013039Y-15902537D01*
X3013039Y-15902537D02*
X2993991Y-15893013D01*
X2993991Y-15893013D02*
X2984467Y-15883489D01*
X3222562Y-15702537D02*
X3241610Y-15702537D01*
X3241610Y-15702537D02*
X3260658Y-15712061D01*
X3260658Y-15712061D02*
X3270182Y-15721585D01*
X3270182Y-15721585D02*
X3279705Y-15740632D01*
X3279705Y-15740632D02*
X3289229Y-15778728D01*
X3289229Y-15778728D02*
X3289229Y-15826347D01*
X3289229Y-15826347D02*
X3279705Y-15864442D01*
X3279705Y-15864442D02*
X3270182Y-15883489D01*
X3270182Y-15883489D02*
X3260658Y-15893013D01*
X3260658Y-15893013D02*
X3241610Y-15902537D01*
X3241610Y-15902537D02*
X3222562Y-15902537D01*
X3222562Y-15902537D02*
X3203515Y-15893013D01*
X3203515Y-15893013D02*
X3193991Y-15883489D01*
X3193991Y-15883489D02*
X3184467Y-15864442D01*
X3184467Y-15864442D02*
X3174943Y-15826347D01*
X3174943Y-15826347D02*
X3174943Y-15778728D01*
X3174943Y-15778728D02*
X3184467Y-15740632D01*
X3184467Y-15740632D02*
X3193991Y-15721585D01*
X3193991Y-15721585D02*
X3203515Y-15712061D01*
X3203515Y-15712061D02*
X3222562Y-15702537D01*
X3413039Y-15702537D02*
X3432086Y-15702537D01*
X3432086Y-15702537D02*
X3451134Y-15712061D01*
X3451134Y-15712061D02*
X3460658Y-15721585D01*
X3460658Y-15721585D02*
X3470182Y-15740632D01*
X3470182Y-15740632D02*
X3479705Y-15778728D01*
X3479705Y-15778728D02*
X3479705Y-15826347D01*
X3479705Y-15826347D02*
X3470182Y-15864442D01*
X3470182Y-15864442D02*
X3460658Y-15883489D01*
X3460658Y-15883489D02*
X3451134Y-15893013D01*
X3451134Y-15893013D02*
X3432086Y-15902537D01*
X3432086Y-15902537D02*
X3413039Y-15902537D01*
X3413039Y-15902537D02*
X3393991Y-15893013D01*
X3393991Y-15893013D02*
X3384467Y-15883489D01*
X3384467Y-15883489D02*
X3374943Y-15864442D01*
X3374943Y-15864442D02*
X3365420Y-15826347D01*
X3365420Y-15826347D02*
X3365420Y-15778728D01*
X3365420Y-15778728D02*
X3374943Y-15740632D01*
X3374943Y-15740632D02*
X3384467Y-15721585D01*
X3384467Y-15721585D02*
X3393991Y-15712061D01*
X3393991Y-15712061D02*
X3413039Y-15702537D01*
X3565420Y-15902537D02*
X3565420Y-15769204D01*
X3565420Y-15788251D02*
X3574943Y-15778728D01*
X3574943Y-15778728D02*
X3593991Y-15769204D01*
X3593991Y-15769204D02*
X3622563Y-15769204D01*
X3622563Y-15769204D02*
X3641610Y-15778728D01*
X3641610Y-15778728D02*
X3651134Y-15797775D01*
X3651134Y-15797775D02*
X3651134Y-15902537D01*
X3651134Y-15797775D02*
X3660658Y-15778728D01*
X3660658Y-15778728D02*
X3679705Y-15769204D01*
X3679705Y-15769204D02*
X3708277Y-15769204D01*
X3708277Y-15769204D02*
X3727324Y-15778728D01*
X3727324Y-15778728D02*
X3736848Y-15797775D01*
X3736848Y-15797775D02*
X3736848Y-15902537D01*
X3832086Y-15902537D02*
X3832086Y-15769204D01*
X3832086Y-15788251D02*
X3841610Y-15778728D01*
X3841610Y-15778728D02*
X3860658Y-15769204D01*
X3860658Y-15769204D02*
X3889229Y-15769204D01*
X3889229Y-15769204D02*
X3908277Y-15778728D01*
X3908277Y-15778728D02*
X3917801Y-15797775D01*
X3917801Y-15797775D02*
X3917801Y-15902537D01*
X3917801Y-15797775D02*
X3927324Y-15778728D01*
X3927324Y-15778728D02*
X3946372Y-15769204D01*
X3946372Y-15769204D02*
X3974943Y-15769204D01*
X3974943Y-15769204D02*
X3993991Y-15778728D01*
X3993991Y-15778728D02*
X4003515Y-15797775D01*
X4003515Y-15797775D02*
X4003515Y-15902537D01*
X4393991Y-15693013D02*
X4222563Y-15950156D01*
X4651134Y-15702537D02*
X4670182Y-15702537D01*
X4670182Y-15702537D02*
X4689229Y-15712061D01*
X4689229Y-15712061D02*
X4698753Y-15721585D01*
X4698753Y-15721585D02*
X4708277Y-15740632D01*
X4708277Y-15740632D02*
X4717801Y-15778728D01*
X4717801Y-15778728D02*
X4717801Y-15826347D01*
X4717801Y-15826347D02*
X4708277Y-15864442D01*
X4708277Y-15864442D02*
X4698753Y-15883489D01*
X4698753Y-15883489D02*
X4689229Y-15893013D01*
X4689229Y-15893013D02*
X4670182Y-15902537D01*
X4670182Y-15902537D02*
X4651134Y-15902537D01*
X4651134Y-15902537D02*
X4632087Y-15893013D01*
X4632087Y-15893013D02*
X4622563Y-15883489D01*
X4622563Y-15883489D02*
X4613039Y-15864442D01*
X4613039Y-15864442D02*
X4603515Y-15826347D01*
X4603515Y-15826347D02*
X4603515Y-15778728D01*
X4603515Y-15778728D02*
X4613039Y-15740632D01*
X4613039Y-15740632D02*
X4622563Y-15721585D01*
X4622563Y-15721585D02*
X4632087Y-15712061D01*
X4632087Y-15712061D02*
X4651134Y-15702537D01*
X4803515Y-15883489D02*
X4813039Y-15893013D01*
X4813039Y-15893013D02*
X4803515Y-15902537D01*
X4803515Y-15902537D02*
X4793991Y-15893013D01*
X4793991Y-15893013D02*
X4803515Y-15883489D01*
X4803515Y-15883489D02*
X4803515Y-15902537D01*
X5003515Y-15902537D02*
X4889229Y-15902537D01*
X4946372Y-15902537D02*
X4946372Y-15702537D01*
X4946372Y-15702537D02*
X4927325Y-15731109D01*
X4927325Y-15731109D02*
X4908277Y-15750156D01*
X4908277Y-15750156D02*
X4889229Y-15759680D01*
X5070182Y-15702537D02*
X5193991Y-15702537D01*
X5193991Y-15702537D02*
X5127325Y-15778728D01*
X5127325Y-15778728D02*
X5155896Y-15778728D01*
X5155896Y-15778728D02*
X5174944Y-15788251D01*
X5174944Y-15788251D02*
X5184468Y-15797775D01*
X5184468Y-15797775D02*
X5193991Y-15816823D01*
X5193991Y-15816823D02*
X5193991Y-15864442D01*
X5193991Y-15864442D02*
X5184468Y-15883489D01*
X5184468Y-15883489D02*
X5174944Y-15893013D01*
X5174944Y-15893013D02*
X5155896Y-15902537D01*
X5155896Y-15902537D02*
X5098753Y-15902537D01*
X5098753Y-15902537D02*
X5079706Y-15893013D01*
X5079706Y-15893013D02*
X5070182Y-15883489D01*
X5260658Y-15702537D02*
X5393991Y-15702537D01*
X5393991Y-15702537D02*
X5308277Y-15902537D01*
X5498753Y-15788251D02*
X5479706Y-15778728D01*
X5479706Y-15778728D02*
X5470182Y-15769204D01*
X5470182Y-15769204D02*
X5460658Y-15750156D01*
X5460658Y-15750156D02*
X5460658Y-15740632D01*
X5460658Y-15740632D02*
X5470182Y-15721585D01*
X5470182Y-15721585D02*
X5479706Y-15712061D01*
X5479706Y-15712061D02*
X5498753Y-15702537D01*
X5498753Y-15702537D02*
X5536849Y-15702537D01*
X5536849Y-15702537D02*
X5555896Y-15712061D01*
X5555896Y-15712061D02*
X5565420Y-15721585D01*
X5565420Y-15721585D02*
X5574944Y-15740632D01*
X5574944Y-15740632D02*
X5574944Y-15750156D01*
X5574944Y-15750156D02*
X5565420Y-15769204D01*
X5565420Y-15769204D02*
X5555896Y-15778728D01*
X5555896Y-15778728D02*
X5536849Y-15788251D01*
X5536849Y-15788251D02*
X5498753Y-15788251D01*
X5498753Y-15788251D02*
X5479706Y-15797775D01*
X5479706Y-15797775D02*
X5470182Y-15807299D01*
X5470182Y-15807299D02*
X5460658Y-15826347D01*
X5460658Y-15826347D02*
X5460658Y-15864442D01*
X5460658Y-15864442D02*
X5470182Y-15883489D01*
X5470182Y-15883489D02*
X5479706Y-15893013D01*
X5479706Y-15893013D02*
X5498753Y-15902537D01*
X5498753Y-15902537D02*
X5536849Y-15902537D01*
X5536849Y-15902537D02*
X5555896Y-15893013D01*
X5555896Y-15893013D02*
X5565420Y-15883489D01*
X5565420Y-15883489D02*
X5574944Y-15864442D01*
X5574944Y-15864442D02*
X5574944Y-15826347D01*
X5574944Y-15826347D02*
X5565420Y-15807299D01*
X5565420Y-15807299D02*
X5555896Y-15797775D01*
X5555896Y-15797775D02*
X5536849Y-15788251D01*
X5651134Y-15702537D02*
X5651134Y-15740632D01*
X5727325Y-15702537D02*
X5727325Y-15740632D01*
X6022563Y-15978728D02*
X6013039Y-15969204D01*
X6013039Y-15969204D02*
X5993991Y-15940632D01*
X5993991Y-15940632D02*
X5984468Y-15921585D01*
X5984468Y-15921585D02*
X5974944Y-15893013D01*
X5974944Y-15893013D02*
X5965420Y-15845394D01*
X5965420Y-15845394D02*
X5965420Y-15807299D01*
X5965420Y-15807299D02*
X5974944Y-15759680D01*
X5974944Y-15759680D02*
X5984468Y-15731109D01*
X5984468Y-15731109D02*
X5993991Y-15712061D01*
X5993991Y-15712061D02*
X6013039Y-15683489D01*
X6013039Y-15683489D02*
X6022563Y-15673966D01*
X6184468Y-15769204D02*
X6184468Y-15902537D01*
X6136848Y-15693013D02*
X6089229Y-15835870D01*
X6089229Y-15835870D02*
X6213039Y-15835870D01*
X6441610Y-15902537D02*
X6441610Y-15702537D01*
X6527325Y-15902537D02*
X6527325Y-15797775D01*
X6527325Y-15797775D02*
X6517801Y-15778728D01*
X6517801Y-15778728D02*
X6498753Y-15769204D01*
X6498753Y-15769204D02*
X6470182Y-15769204D01*
X6470182Y-15769204D02*
X6451134Y-15778728D01*
X6451134Y-15778728D02*
X6441610Y-15788251D01*
X6651134Y-15902537D02*
X6632087Y-15893013D01*
X6632087Y-15893013D02*
X6622563Y-15883489D01*
X6622563Y-15883489D02*
X6613039Y-15864442D01*
X6613039Y-15864442D02*
X6613039Y-15807299D01*
X6613039Y-15807299D02*
X6622563Y-15788251D01*
X6622563Y-15788251D02*
X6632087Y-15778728D01*
X6632087Y-15778728D02*
X6651134Y-15769204D01*
X6651134Y-15769204D02*
X6679706Y-15769204D01*
X6679706Y-15769204D02*
X6698753Y-15778728D01*
X6698753Y-15778728D02*
X6708277Y-15788251D01*
X6708277Y-15788251D02*
X6717801Y-15807299D01*
X6717801Y-15807299D02*
X6717801Y-15864442D01*
X6717801Y-15864442D02*
X6708277Y-15883489D01*
X6708277Y-15883489D02*
X6698753Y-15893013D01*
X6698753Y-15893013D02*
X6679706Y-15902537D01*
X6679706Y-15902537D02*
X6651134Y-15902537D01*
X6832087Y-15902537D02*
X6813039Y-15893013D01*
X6813039Y-15893013D02*
X6803515Y-15873966D01*
X6803515Y-15873966D02*
X6803515Y-15702537D01*
X6984468Y-15893013D02*
X6965420Y-15902537D01*
X6965420Y-15902537D02*
X6927325Y-15902537D01*
X6927325Y-15902537D02*
X6908277Y-15893013D01*
X6908277Y-15893013D02*
X6898753Y-15873966D01*
X6898753Y-15873966D02*
X6898753Y-15797775D01*
X6898753Y-15797775D02*
X6908277Y-15778728D01*
X6908277Y-15778728D02*
X6927325Y-15769204D01*
X6927325Y-15769204D02*
X6965420Y-15769204D01*
X6965420Y-15769204D02*
X6984468Y-15778728D01*
X6984468Y-15778728D02*
X6993991Y-15797775D01*
X6993991Y-15797775D02*
X6993991Y-15816823D01*
X6993991Y-15816823D02*
X6898753Y-15835870D01*
X7070182Y-15893013D02*
X7089230Y-15902537D01*
X7089230Y-15902537D02*
X7127325Y-15902537D01*
X7127325Y-15902537D02*
X7146372Y-15893013D01*
X7146372Y-15893013D02*
X7155896Y-15873966D01*
X7155896Y-15873966D02*
X7155896Y-15864442D01*
X7155896Y-15864442D02*
X7146372Y-15845394D01*
X7146372Y-15845394D02*
X7127325Y-15835870D01*
X7127325Y-15835870D02*
X7098753Y-15835870D01*
X7098753Y-15835870D02*
X7079706Y-15826347D01*
X7079706Y-15826347D02*
X7070182Y-15807299D01*
X7070182Y-15807299D02*
X7070182Y-15797775D01*
X7070182Y-15797775D02*
X7079706Y-15778728D01*
X7079706Y-15778728D02*
X7098753Y-15769204D01*
X7098753Y-15769204D02*
X7127325Y-15769204D01*
X7127325Y-15769204D02*
X7146372Y-15778728D01*
X7222563Y-15978728D02*
X7232087Y-15969204D01*
X7232087Y-15969204D02*
X7251134Y-15940632D01*
X7251134Y-15940632D02*
X7260658Y-15921585D01*
X7260658Y-15921585D02*
X7270182Y-15893013D01*
X7270182Y-15893013D02*
X7279706Y-15845394D01*
X7279706Y-15845394D02*
X7279706Y-15807299D01*
X7279706Y-15807299D02*
X7270182Y-15759680D01*
X7270182Y-15759680D02*
X7260658Y-15731109D01*
X7260658Y-15731109D02*
X7251134Y-15712061D01*
X7251134Y-15712061D02*
X7232087Y-15683489D01*
X7232087Y-15683489D02*
X7222563Y-15673966D01*
X7584468Y-15978728D02*
X7574944Y-15969204D01*
X7574944Y-15969204D02*
X7555896Y-15940632D01*
X7555896Y-15940632D02*
X7546372Y-15921585D01*
X7546372Y-15921585D02*
X7536849Y-15893013D01*
X7536849Y-15893013D02*
X7527325Y-15845394D01*
X7527325Y-15845394D02*
X7527325Y-15807299D01*
X7527325Y-15807299D02*
X7536849Y-15759680D01*
X7536849Y-15759680D02*
X7546372Y-15731109D01*
X7546372Y-15731109D02*
X7555896Y-15712061D01*
X7555896Y-15712061D02*
X7574944Y-15683489D01*
X7574944Y-15683489D02*
X7584468Y-15673966D01*
X7660658Y-15769204D02*
X7660658Y-15902537D01*
X7660658Y-15788251D02*
X7670182Y-15778728D01*
X7670182Y-15778728D02*
X7689230Y-15769204D01*
X7689230Y-15769204D02*
X7717801Y-15769204D01*
X7717801Y-15769204D02*
X7736849Y-15778728D01*
X7736849Y-15778728D02*
X7746372Y-15797775D01*
X7746372Y-15797775D02*
X7746372Y-15902537D01*
X7870182Y-15902537D02*
X7851134Y-15893013D01*
X7851134Y-15893013D02*
X7841611Y-15883489D01*
X7841611Y-15883489D02*
X7832087Y-15864442D01*
X7832087Y-15864442D02*
X7832087Y-15807299D01*
X7832087Y-15807299D02*
X7841611Y-15788251D01*
X7841611Y-15788251D02*
X7851134Y-15778728D01*
X7851134Y-15778728D02*
X7870182Y-15769204D01*
X7870182Y-15769204D02*
X7898753Y-15769204D01*
X7898753Y-15769204D02*
X7917801Y-15778728D01*
X7917801Y-15778728D02*
X7927325Y-15788251D01*
X7927325Y-15788251D02*
X7936849Y-15807299D01*
X7936849Y-15807299D02*
X7936849Y-15864442D01*
X7936849Y-15864442D02*
X7927325Y-15883489D01*
X7927325Y-15883489D02*
X7917801Y-15893013D01*
X7917801Y-15893013D02*
X7898753Y-15902537D01*
X7898753Y-15902537D02*
X7870182Y-15902537D01*
X7993992Y-15769204D02*
X8070182Y-15769204D01*
X8022563Y-15702537D02*
X8022563Y-15873966D01*
X8022563Y-15873966D02*
X8032087Y-15893013D01*
X8032087Y-15893013D02*
X8051134Y-15902537D01*
X8051134Y-15902537D02*
X8070182Y-15902537D01*
X8289230Y-15769204D02*
X8289230Y-15969204D01*
X8289230Y-15778728D02*
X8308277Y-15769204D01*
X8308277Y-15769204D02*
X8346373Y-15769204D01*
X8346373Y-15769204D02*
X8365420Y-15778728D01*
X8365420Y-15778728D02*
X8374944Y-15788251D01*
X8374944Y-15788251D02*
X8384468Y-15807299D01*
X8384468Y-15807299D02*
X8384468Y-15864442D01*
X8384468Y-15864442D02*
X8374944Y-15883489D01*
X8374944Y-15883489D02*
X8365420Y-15893013D01*
X8365420Y-15893013D02*
X8346373Y-15902537D01*
X8346373Y-15902537D02*
X8308277Y-15902537D01*
X8308277Y-15902537D02*
X8289230Y-15893013D01*
X8498754Y-15902537D02*
X8479706Y-15893013D01*
X8479706Y-15893013D02*
X8470182Y-15873966D01*
X8470182Y-15873966D02*
X8470182Y-15702537D01*
X8660658Y-15902537D02*
X8660658Y-15797775D01*
X8660658Y-15797775D02*
X8651135Y-15778728D01*
X8651135Y-15778728D02*
X8632087Y-15769204D01*
X8632087Y-15769204D02*
X8593992Y-15769204D01*
X8593992Y-15769204D02*
X8574944Y-15778728D01*
X8660658Y-15893013D02*
X8641611Y-15902537D01*
X8641611Y-15902537D02*
X8593992Y-15902537D01*
X8593992Y-15902537D02*
X8574944Y-15893013D01*
X8574944Y-15893013D02*
X8565420Y-15873966D01*
X8565420Y-15873966D02*
X8565420Y-15854918D01*
X8565420Y-15854918D02*
X8574944Y-15835870D01*
X8574944Y-15835870D02*
X8593992Y-15826347D01*
X8593992Y-15826347D02*
X8641611Y-15826347D01*
X8641611Y-15826347D02*
X8660658Y-15816823D01*
X8727325Y-15769204D02*
X8803515Y-15769204D01*
X8755896Y-15702537D02*
X8755896Y-15873966D01*
X8755896Y-15873966D02*
X8765420Y-15893013D01*
X8765420Y-15893013D02*
X8784468Y-15902537D01*
X8784468Y-15902537D02*
X8803515Y-15902537D01*
X8946373Y-15893013D02*
X8927325Y-15902537D01*
X8927325Y-15902537D02*
X8889230Y-15902537D01*
X8889230Y-15902537D02*
X8870182Y-15893013D01*
X8870182Y-15893013D02*
X8860658Y-15873966D01*
X8860658Y-15873966D02*
X8860658Y-15797775D01*
X8860658Y-15797775D02*
X8870182Y-15778728D01*
X8870182Y-15778728D02*
X8889230Y-15769204D01*
X8889230Y-15769204D02*
X8927325Y-15769204D01*
X8927325Y-15769204D02*
X8946373Y-15778728D01*
X8946373Y-15778728D02*
X8955896Y-15797775D01*
X8955896Y-15797775D02*
X8955896Y-15816823D01*
X8955896Y-15816823D02*
X8860658Y-15835870D01*
X9127325Y-15902537D02*
X9127325Y-15702537D01*
X9127325Y-15893013D02*
X9108277Y-15902537D01*
X9108277Y-15902537D02*
X9070182Y-15902537D01*
X9070182Y-15902537D02*
X9051135Y-15893013D01*
X9051135Y-15893013D02*
X9041611Y-15883489D01*
X9041611Y-15883489D02*
X9032087Y-15864442D01*
X9032087Y-15864442D02*
X9032087Y-15807299D01*
X9032087Y-15807299D02*
X9041611Y-15788251D01*
X9041611Y-15788251D02*
X9051135Y-15778728D01*
X9051135Y-15778728D02*
X9070182Y-15769204D01*
X9070182Y-15769204D02*
X9108277Y-15769204D01*
X9108277Y-15769204D02*
X9127325Y-15778728D01*
X9203516Y-15978728D02*
X9213039Y-15969204D01*
X9213039Y-15969204D02*
X9232087Y-15940632D01*
X9232087Y-15940632D02*
X9241611Y-15921585D01*
X9241611Y-15921585D02*
X9251135Y-15893013D01*
X9251135Y-15893013D02*
X9260658Y-15845394D01*
X9260658Y-15845394D02*
X9260658Y-15807299D01*
X9260658Y-15807299D02*
X9251135Y-15759680D01*
X9251135Y-15759680D02*
X9241611Y-15731109D01*
X9241611Y-15731109D02*
X9232087Y-15712061D01*
X9232087Y-15712061D02*
X9213039Y-15683489D01*
X9213039Y-15683489D02*
X9203516Y-15673966D01*
X2447500Y-16131053D02*
G75*
G02*
X2247500Y-16131053I-100000J0D01*
G01*
X2247500Y-16131053D02*
G75*
G02*
X2447500Y-16131053I100000J0D01*
G01*
X2803515Y-16022537D02*
X2708277Y-16022537D01*
X2708277Y-16022537D02*
X2698753Y-16117775D01*
X2698753Y-16117775D02*
X2708277Y-16108251D01*
X2708277Y-16108251D02*
X2727324Y-16098728D01*
X2727324Y-16098728D02*
X2774944Y-16098728D01*
X2774944Y-16098728D02*
X2793991Y-16108251D01*
X2793991Y-16108251D02*
X2803515Y-16117775D01*
X2803515Y-16117775D02*
X2813039Y-16136823D01*
X2813039Y-16136823D02*
X2813039Y-16184442D01*
X2813039Y-16184442D02*
X2803515Y-16203489D01*
X2803515Y-16203489D02*
X2793991Y-16213013D01*
X2793991Y-16213013D02*
X2774944Y-16222537D01*
X2774944Y-16222537D02*
X2727324Y-16222537D01*
X2727324Y-16222537D02*
X2708277Y-16213013D01*
X2708277Y-16213013D02*
X2698753Y-16203489D01*
X2898753Y-16203489D02*
X2908277Y-16213013D01*
X2908277Y-16213013D02*
X2898753Y-16222537D01*
X2898753Y-16222537D02*
X2889229Y-16213013D01*
X2889229Y-16213013D02*
X2898753Y-16203489D01*
X2898753Y-16203489D02*
X2898753Y-16222537D01*
X3032086Y-16022537D02*
X3051134Y-16022537D01*
X3051134Y-16022537D02*
X3070182Y-16032061D01*
X3070182Y-16032061D02*
X3079705Y-16041585D01*
X3079705Y-16041585D02*
X3089229Y-16060632D01*
X3089229Y-16060632D02*
X3098753Y-16098728D01*
X3098753Y-16098728D02*
X3098753Y-16146347D01*
X3098753Y-16146347D02*
X3089229Y-16184442D01*
X3089229Y-16184442D02*
X3079705Y-16203489D01*
X3079705Y-16203489D02*
X3070182Y-16213013D01*
X3070182Y-16213013D02*
X3051134Y-16222537D01*
X3051134Y-16222537D02*
X3032086Y-16222537D01*
X3032086Y-16222537D02*
X3013039Y-16213013D01*
X3013039Y-16213013D02*
X3003515Y-16203489D01*
X3003515Y-16203489D02*
X2993991Y-16184442D01*
X2993991Y-16184442D02*
X2984467Y-16146347D01*
X2984467Y-16146347D02*
X2984467Y-16098728D01*
X2984467Y-16098728D02*
X2993991Y-16060632D01*
X2993991Y-16060632D02*
X3003515Y-16041585D01*
X3003515Y-16041585D02*
X3013039Y-16032061D01*
X3013039Y-16032061D02*
X3032086Y-16022537D01*
X3222562Y-16022537D02*
X3241610Y-16022537D01*
X3241610Y-16022537D02*
X3260658Y-16032061D01*
X3260658Y-16032061D02*
X3270182Y-16041585D01*
X3270182Y-16041585D02*
X3279705Y-16060632D01*
X3279705Y-16060632D02*
X3289229Y-16098728D01*
X3289229Y-16098728D02*
X3289229Y-16146347D01*
X3289229Y-16146347D02*
X3279705Y-16184442D01*
X3279705Y-16184442D02*
X3270182Y-16203489D01*
X3270182Y-16203489D02*
X3260658Y-16213013D01*
X3260658Y-16213013D02*
X3241610Y-16222537D01*
X3241610Y-16222537D02*
X3222562Y-16222537D01*
X3222562Y-16222537D02*
X3203515Y-16213013D01*
X3203515Y-16213013D02*
X3193991Y-16203489D01*
X3193991Y-16203489D02*
X3184467Y-16184442D01*
X3184467Y-16184442D02*
X3174943Y-16146347D01*
X3174943Y-16146347D02*
X3174943Y-16098728D01*
X3174943Y-16098728D02*
X3184467Y-16060632D01*
X3184467Y-16060632D02*
X3193991Y-16041585D01*
X3193991Y-16041585D02*
X3203515Y-16032061D01*
X3203515Y-16032061D02*
X3222562Y-16022537D01*
X3413039Y-16022537D02*
X3432086Y-16022537D01*
X3432086Y-16022537D02*
X3451134Y-16032061D01*
X3451134Y-16032061D02*
X3460658Y-16041585D01*
X3460658Y-16041585D02*
X3470182Y-16060632D01*
X3470182Y-16060632D02*
X3479705Y-16098728D01*
X3479705Y-16098728D02*
X3479705Y-16146347D01*
X3479705Y-16146347D02*
X3470182Y-16184442D01*
X3470182Y-16184442D02*
X3460658Y-16203489D01*
X3460658Y-16203489D02*
X3451134Y-16213013D01*
X3451134Y-16213013D02*
X3432086Y-16222537D01*
X3432086Y-16222537D02*
X3413039Y-16222537D01*
X3413039Y-16222537D02*
X3393991Y-16213013D01*
X3393991Y-16213013D02*
X3384467Y-16203489D01*
X3384467Y-16203489D02*
X3374943Y-16184442D01*
X3374943Y-16184442D02*
X3365420Y-16146347D01*
X3365420Y-16146347D02*
X3365420Y-16098728D01*
X3365420Y-16098728D02*
X3374943Y-16060632D01*
X3374943Y-16060632D02*
X3384467Y-16041585D01*
X3384467Y-16041585D02*
X3393991Y-16032061D01*
X3393991Y-16032061D02*
X3413039Y-16022537D01*
X3565420Y-16222537D02*
X3565420Y-16089204D01*
X3565420Y-16108251D02*
X3574943Y-16098728D01*
X3574943Y-16098728D02*
X3593991Y-16089204D01*
X3593991Y-16089204D02*
X3622563Y-16089204D01*
X3622563Y-16089204D02*
X3641610Y-16098728D01*
X3641610Y-16098728D02*
X3651134Y-16117775D01*
X3651134Y-16117775D02*
X3651134Y-16222537D01*
X3651134Y-16117775D02*
X3660658Y-16098728D01*
X3660658Y-16098728D02*
X3679705Y-16089204D01*
X3679705Y-16089204D02*
X3708277Y-16089204D01*
X3708277Y-16089204D02*
X3727324Y-16098728D01*
X3727324Y-16098728D02*
X3736848Y-16117775D01*
X3736848Y-16117775D02*
X3736848Y-16222537D01*
X3832086Y-16222537D02*
X3832086Y-16089204D01*
X3832086Y-16108251D02*
X3841610Y-16098728D01*
X3841610Y-16098728D02*
X3860658Y-16089204D01*
X3860658Y-16089204D02*
X3889229Y-16089204D01*
X3889229Y-16089204D02*
X3908277Y-16098728D01*
X3908277Y-16098728D02*
X3917801Y-16117775D01*
X3917801Y-16117775D02*
X3917801Y-16222537D01*
X3917801Y-16117775D02*
X3927324Y-16098728D01*
X3927324Y-16098728D02*
X3946372Y-16089204D01*
X3946372Y-16089204D02*
X3974943Y-16089204D01*
X3974943Y-16089204D02*
X3993991Y-16098728D01*
X3993991Y-16098728D02*
X4003515Y-16117775D01*
X4003515Y-16117775D02*
X4003515Y-16222537D01*
X4393991Y-16013013D02*
X4222563Y-16270156D01*
X4651134Y-16022537D02*
X4670182Y-16022537D01*
X4670182Y-16022537D02*
X4689229Y-16032061D01*
X4689229Y-16032061D02*
X4698753Y-16041585D01*
X4698753Y-16041585D02*
X4708277Y-16060632D01*
X4708277Y-16060632D02*
X4717801Y-16098728D01*
X4717801Y-16098728D02*
X4717801Y-16146347D01*
X4717801Y-16146347D02*
X4708277Y-16184442D01*
X4708277Y-16184442D02*
X4698753Y-16203489D01*
X4698753Y-16203489D02*
X4689229Y-16213013D01*
X4689229Y-16213013D02*
X4670182Y-16222537D01*
X4670182Y-16222537D02*
X4651134Y-16222537D01*
X4651134Y-16222537D02*
X4632087Y-16213013D01*
X4632087Y-16213013D02*
X4622563Y-16203489D01*
X4622563Y-16203489D02*
X4613039Y-16184442D01*
X4613039Y-16184442D02*
X4603515Y-16146347D01*
X4603515Y-16146347D02*
X4603515Y-16098728D01*
X4603515Y-16098728D02*
X4613039Y-16060632D01*
X4613039Y-16060632D02*
X4622563Y-16041585D01*
X4622563Y-16041585D02*
X4632087Y-16032061D01*
X4632087Y-16032061D02*
X4651134Y-16022537D01*
X4803515Y-16203489D02*
X4813039Y-16213013D01*
X4813039Y-16213013D02*
X4803515Y-16222537D01*
X4803515Y-16222537D02*
X4793991Y-16213013D01*
X4793991Y-16213013D02*
X4803515Y-16203489D01*
X4803515Y-16203489D02*
X4803515Y-16222537D01*
X5003515Y-16222537D02*
X4889229Y-16222537D01*
X4946372Y-16222537D02*
X4946372Y-16022537D01*
X4946372Y-16022537D02*
X4927325Y-16051109D01*
X4927325Y-16051109D02*
X4908277Y-16070156D01*
X4908277Y-16070156D02*
X4889229Y-16079680D01*
X5098753Y-16222537D02*
X5136848Y-16222537D01*
X5136848Y-16222537D02*
X5155896Y-16213013D01*
X5155896Y-16213013D02*
X5165420Y-16203489D01*
X5165420Y-16203489D02*
X5184468Y-16174918D01*
X5184468Y-16174918D02*
X5193991Y-16136823D01*
X5193991Y-16136823D02*
X5193991Y-16060632D01*
X5193991Y-16060632D02*
X5184468Y-16041585D01*
X5184468Y-16041585D02*
X5174944Y-16032061D01*
X5174944Y-16032061D02*
X5155896Y-16022537D01*
X5155896Y-16022537D02*
X5117801Y-16022537D01*
X5117801Y-16022537D02*
X5098753Y-16032061D01*
X5098753Y-16032061D02*
X5089229Y-16041585D01*
X5089229Y-16041585D02*
X5079706Y-16060632D01*
X5079706Y-16060632D02*
X5079706Y-16108251D01*
X5079706Y-16108251D02*
X5089229Y-16127299D01*
X5089229Y-16127299D02*
X5098753Y-16136823D01*
X5098753Y-16136823D02*
X5117801Y-16146347D01*
X5117801Y-16146347D02*
X5155896Y-16146347D01*
X5155896Y-16146347D02*
X5174944Y-16136823D01*
X5174944Y-16136823D02*
X5184468Y-16127299D01*
X5184468Y-16127299D02*
X5193991Y-16108251D01*
X5365420Y-16022537D02*
X5327325Y-16022537D01*
X5327325Y-16022537D02*
X5308277Y-16032061D01*
X5308277Y-16032061D02*
X5298753Y-16041585D01*
X5298753Y-16041585D02*
X5279706Y-16070156D01*
X5279706Y-16070156D02*
X5270182Y-16108251D01*
X5270182Y-16108251D02*
X5270182Y-16184442D01*
X5270182Y-16184442D02*
X5279706Y-16203489D01*
X5279706Y-16203489D02*
X5289229Y-16213013D01*
X5289229Y-16213013D02*
X5308277Y-16222537D01*
X5308277Y-16222537D02*
X5346372Y-16222537D01*
X5346372Y-16222537D02*
X5365420Y-16213013D01*
X5365420Y-16213013D02*
X5374944Y-16203489D01*
X5374944Y-16203489D02*
X5384468Y-16184442D01*
X5384468Y-16184442D02*
X5384468Y-16136823D01*
X5384468Y-16136823D02*
X5374944Y-16117775D01*
X5374944Y-16117775D02*
X5365420Y-16108251D01*
X5365420Y-16108251D02*
X5346372Y-16098728D01*
X5346372Y-16098728D02*
X5308277Y-16098728D01*
X5308277Y-16098728D02*
X5289229Y-16108251D01*
X5289229Y-16108251D02*
X5279706Y-16117775D01*
X5279706Y-16117775D02*
X5270182Y-16136823D01*
X5479706Y-16222537D02*
X5517801Y-16222537D01*
X5517801Y-16222537D02*
X5536849Y-16213013D01*
X5536849Y-16213013D02*
X5546372Y-16203489D01*
X5546372Y-16203489D02*
X5565420Y-16174918D01*
X5565420Y-16174918D02*
X5574944Y-16136823D01*
X5574944Y-16136823D02*
X5574944Y-16060632D01*
X5574944Y-16060632D02*
X5565420Y-16041585D01*
X5565420Y-16041585D02*
X5555896Y-16032061D01*
X5555896Y-16032061D02*
X5536849Y-16022537D01*
X5536849Y-16022537D02*
X5498753Y-16022537D01*
X5498753Y-16022537D02*
X5479706Y-16032061D01*
X5479706Y-16032061D02*
X5470182Y-16041585D01*
X5470182Y-16041585D02*
X5460658Y-16060632D01*
X5460658Y-16060632D02*
X5460658Y-16108251D01*
X5460658Y-16108251D02*
X5470182Y-16127299D01*
X5470182Y-16127299D02*
X5479706Y-16136823D01*
X5479706Y-16136823D02*
X5498753Y-16146347D01*
X5498753Y-16146347D02*
X5536849Y-16146347D01*
X5536849Y-16146347D02*
X5555896Y-16136823D01*
X5555896Y-16136823D02*
X5565420Y-16127299D01*
X5565420Y-16127299D02*
X5574944Y-16108251D01*
X5651134Y-16022537D02*
X5651134Y-16060632D01*
X5727325Y-16022537D02*
X5727325Y-16060632D01*
X6022563Y-16298728D02*
X6013039Y-16289204D01*
X6013039Y-16289204D02*
X5993991Y-16260632D01*
X5993991Y-16260632D02*
X5984468Y-16241585D01*
X5984468Y-16241585D02*
X5974944Y-16213013D01*
X5974944Y-16213013D02*
X5965420Y-16165394D01*
X5965420Y-16165394D02*
X5965420Y-16127299D01*
X5965420Y-16127299D02*
X5974944Y-16079680D01*
X5974944Y-16079680D02*
X5984468Y-16051109D01*
X5984468Y-16051109D02*
X5993991Y-16032061D01*
X5993991Y-16032061D02*
X6013039Y-16003489D01*
X6013039Y-16003489D02*
X6022563Y-15993966D01*
X6193991Y-16022537D02*
X6098753Y-16022537D01*
X6098753Y-16022537D02*
X6089229Y-16117775D01*
X6089229Y-16117775D02*
X6098753Y-16108251D01*
X6098753Y-16108251D02*
X6117801Y-16098728D01*
X6117801Y-16098728D02*
X6165420Y-16098728D01*
X6165420Y-16098728D02*
X6184468Y-16108251D01*
X6184468Y-16108251D02*
X6193991Y-16117775D01*
X6193991Y-16117775D02*
X6203515Y-16136823D01*
X6203515Y-16136823D02*
X6203515Y-16184442D01*
X6203515Y-16184442D02*
X6193991Y-16203489D01*
X6193991Y-16203489D02*
X6184468Y-16213013D01*
X6184468Y-16213013D02*
X6165420Y-16222537D01*
X6165420Y-16222537D02*
X6117801Y-16222537D01*
X6117801Y-16222537D02*
X6098753Y-16213013D01*
X6098753Y-16213013D02*
X6089229Y-16203489D01*
X6441610Y-16222537D02*
X6441610Y-16022537D01*
X6527325Y-16222537D02*
X6527325Y-16117775D01*
X6527325Y-16117775D02*
X6517801Y-16098728D01*
X6517801Y-16098728D02*
X6498753Y-16089204D01*
X6498753Y-16089204D02*
X6470182Y-16089204D01*
X6470182Y-16089204D02*
X6451134Y-16098728D01*
X6451134Y-16098728D02*
X6441610Y-16108251D01*
X6651134Y-16222537D02*
X6632087Y-16213013D01*
X6632087Y-16213013D02*
X6622563Y-16203489D01*
X6622563Y-16203489D02*
X6613039Y-16184442D01*
X6613039Y-16184442D02*
X6613039Y-16127299D01*
X6613039Y-16127299D02*
X6622563Y-16108251D01*
X6622563Y-16108251D02*
X6632087Y-16098728D01*
X6632087Y-16098728D02*
X6651134Y-16089204D01*
X6651134Y-16089204D02*
X6679706Y-16089204D01*
X6679706Y-16089204D02*
X6698753Y-16098728D01*
X6698753Y-16098728D02*
X6708277Y-16108251D01*
X6708277Y-16108251D02*
X6717801Y-16127299D01*
X6717801Y-16127299D02*
X6717801Y-16184442D01*
X6717801Y-16184442D02*
X6708277Y-16203489D01*
X6708277Y-16203489D02*
X6698753Y-16213013D01*
X6698753Y-16213013D02*
X6679706Y-16222537D01*
X6679706Y-16222537D02*
X6651134Y-16222537D01*
X6832087Y-16222537D02*
X6813039Y-16213013D01*
X6813039Y-16213013D02*
X6803515Y-16193966D01*
X6803515Y-16193966D02*
X6803515Y-16022537D01*
X6984468Y-16213013D02*
X6965420Y-16222537D01*
X6965420Y-16222537D02*
X6927325Y-16222537D01*
X6927325Y-16222537D02*
X6908277Y-16213013D01*
X6908277Y-16213013D02*
X6898753Y-16193966D01*
X6898753Y-16193966D02*
X6898753Y-16117775D01*
X6898753Y-16117775D02*
X6908277Y-16098728D01*
X6908277Y-16098728D02*
X6927325Y-16089204D01*
X6927325Y-16089204D02*
X6965420Y-16089204D01*
X6965420Y-16089204D02*
X6984468Y-16098728D01*
X6984468Y-16098728D02*
X6993991Y-16117775D01*
X6993991Y-16117775D02*
X6993991Y-16136823D01*
X6993991Y-16136823D02*
X6898753Y-16155870D01*
X7070182Y-16213013D02*
X7089230Y-16222537D01*
X7089230Y-16222537D02*
X7127325Y-16222537D01*
X7127325Y-16222537D02*
X7146372Y-16213013D01*
X7146372Y-16213013D02*
X7155896Y-16193966D01*
X7155896Y-16193966D02*
X7155896Y-16184442D01*
X7155896Y-16184442D02*
X7146372Y-16165394D01*
X7146372Y-16165394D02*
X7127325Y-16155870D01*
X7127325Y-16155870D02*
X7098753Y-16155870D01*
X7098753Y-16155870D02*
X7079706Y-16146347D01*
X7079706Y-16146347D02*
X7070182Y-16127299D01*
X7070182Y-16127299D02*
X7070182Y-16117775D01*
X7070182Y-16117775D02*
X7079706Y-16098728D01*
X7079706Y-16098728D02*
X7098753Y-16089204D01*
X7098753Y-16089204D02*
X7127325Y-16089204D01*
X7127325Y-16089204D02*
X7146372Y-16098728D01*
X7222563Y-16298728D02*
X7232087Y-16289204D01*
X7232087Y-16289204D02*
X7251134Y-16260632D01*
X7251134Y-16260632D02*
X7260658Y-16241585D01*
X7260658Y-16241585D02*
X7270182Y-16213013D01*
X7270182Y-16213013D02*
X7279706Y-16165394D01*
X7279706Y-16165394D02*
X7279706Y-16127299D01*
X7279706Y-16127299D02*
X7270182Y-16079680D01*
X7270182Y-16079680D02*
X7260658Y-16051109D01*
X7260658Y-16051109D02*
X7251134Y-16032061D01*
X7251134Y-16032061D02*
X7232087Y-16003489D01*
X7232087Y-16003489D02*
X7222563Y-15993966D01*
X7584468Y-16298728D02*
X7574944Y-16289204D01*
X7574944Y-16289204D02*
X7555896Y-16260632D01*
X7555896Y-16260632D02*
X7546372Y-16241585D01*
X7546372Y-16241585D02*
X7536849Y-16213013D01*
X7536849Y-16213013D02*
X7527325Y-16165394D01*
X7527325Y-16165394D02*
X7527325Y-16127299D01*
X7527325Y-16127299D02*
X7536849Y-16079680D01*
X7536849Y-16079680D02*
X7546372Y-16051109D01*
X7546372Y-16051109D02*
X7555896Y-16032061D01*
X7555896Y-16032061D02*
X7574944Y-16003489D01*
X7574944Y-16003489D02*
X7584468Y-15993966D01*
X7660658Y-16089204D02*
X7660658Y-16222537D01*
X7660658Y-16108251D02*
X7670182Y-16098728D01*
X7670182Y-16098728D02*
X7689230Y-16089204D01*
X7689230Y-16089204D02*
X7717801Y-16089204D01*
X7717801Y-16089204D02*
X7736849Y-16098728D01*
X7736849Y-16098728D02*
X7746372Y-16117775D01*
X7746372Y-16117775D02*
X7746372Y-16222537D01*
X7870182Y-16222537D02*
X7851134Y-16213013D01*
X7851134Y-16213013D02*
X7841611Y-16203489D01*
X7841611Y-16203489D02*
X7832087Y-16184442D01*
X7832087Y-16184442D02*
X7832087Y-16127299D01*
X7832087Y-16127299D02*
X7841611Y-16108251D01*
X7841611Y-16108251D02*
X7851134Y-16098728D01*
X7851134Y-16098728D02*
X7870182Y-16089204D01*
X7870182Y-16089204D02*
X7898753Y-16089204D01*
X7898753Y-16089204D02*
X7917801Y-16098728D01*
X7917801Y-16098728D02*
X7927325Y-16108251D01*
X7927325Y-16108251D02*
X7936849Y-16127299D01*
X7936849Y-16127299D02*
X7936849Y-16184442D01*
X7936849Y-16184442D02*
X7927325Y-16203489D01*
X7927325Y-16203489D02*
X7917801Y-16213013D01*
X7917801Y-16213013D02*
X7898753Y-16222537D01*
X7898753Y-16222537D02*
X7870182Y-16222537D01*
X7993992Y-16089204D02*
X8070182Y-16089204D01*
X8022563Y-16022537D02*
X8022563Y-16193966D01*
X8022563Y-16193966D02*
X8032087Y-16213013D01*
X8032087Y-16213013D02*
X8051134Y-16222537D01*
X8051134Y-16222537D02*
X8070182Y-16222537D01*
X8289230Y-16089204D02*
X8289230Y-16289204D01*
X8289230Y-16098728D02*
X8308277Y-16089204D01*
X8308277Y-16089204D02*
X8346373Y-16089204D01*
X8346373Y-16089204D02*
X8365420Y-16098728D01*
X8365420Y-16098728D02*
X8374944Y-16108251D01*
X8374944Y-16108251D02*
X8384468Y-16127299D01*
X8384468Y-16127299D02*
X8384468Y-16184442D01*
X8384468Y-16184442D02*
X8374944Y-16203489D01*
X8374944Y-16203489D02*
X8365420Y-16213013D01*
X8365420Y-16213013D02*
X8346373Y-16222537D01*
X8346373Y-16222537D02*
X8308277Y-16222537D01*
X8308277Y-16222537D02*
X8289230Y-16213013D01*
X8498754Y-16222537D02*
X8479706Y-16213013D01*
X8479706Y-16213013D02*
X8470182Y-16193966D01*
X8470182Y-16193966D02*
X8470182Y-16022537D01*
X8660658Y-16222537D02*
X8660658Y-16117775D01*
X8660658Y-16117775D02*
X8651135Y-16098728D01*
X8651135Y-16098728D02*
X8632087Y-16089204D01*
X8632087Y-16089204D02*
X8593992Y-16089204D01*
X8593992Y-16089204D02*
X8574944Y-16098728D01*
X8660658Y-16213013D02*
X8641611Y-16222537D01*
X8641611Y-16222537D02*
X8593992Y-16222537D01*
X8593992Y-16222537D02*
X8574944Y-16213013D01*
X8574944Y-16213013D02*
X8565420Y-16193966D01*
X8565420Y-16193966D02*
X8565420Y-16174918D01*
X8565420Y-16174918D02*
X8574944Y-16155870D01*
X8574944Y-16155870D02*
X8593992Y-16146347D01*
X8593992Y-16146347D02*
X8641611Y-16146347D01*
X8641611Y-16146347D02*
X8660658Y-16136823D01*
X8727325Y-16089204D02*
X8803515Y-16089204D01*
X8755896Y-16022537D02*
X8755896Y-16193966D01*
X8755896Y-16193966D02*
X8765420Y-16213013D01*
X8765420Y-16213013D02*
X8784468Y-16222537D01*
X8784468Y-16222537D02*
X8803515Y-16222537D01*
X8946373Y-16213013D02*
X8927325Y-16222537D01*
X8927325Y-16222537D02*
X8889230Y-16222537D01*
X8889230Y-16222537D02*
X8870182Y-16213013D01*
X8870182Y-16213013D02*
X8860658Y-16193966D01*
X8860658Y-16193966D02*
X8860658Y-16117775D01*
X8860658Y-16117775D02*
X8870182Y-16098728D01*
X8870182Y-16098728D02*
X8889230Y-16089204D01*
X8889230Y-16089204D02*
X8927325Y-16089204D01*
X8927325Y-16089204D02*
X8946373Y-16098728D01*
X8946373Y-16098728D02*
X8955896Y-16117775D01*
X8955896Y-16117775D02*
X8955896Y-16136823D01*
X8955896Y-16136823D02*
X8860658Y-16155870D01*
X9127325Y-16222537D02*
X9127325Y-16022537D01*
X9127325Y-16213013D02*
X9108277Y-16222537D01*
X9108277Y-16222537D02*
X9070182Y-16222537D01*
X9070182Y-16222537D02*
X9051135Y-16213013D01*
X9051135Y-16213013D02*
X9041611Y-16203489D01*
X9041611Y-16203489D02*
X9032087Y-16184442D01*
X9032087Y-16184442D02*
X9032087Y-16127299D01*
X9032087Y-16127299D02*
X9041611Y-16108251D01*
X9041611Y-16108251D02*
X9051135Y-16098728D01*
X9051135Y-16098728D02*
X9070182Y-16089204D01*
X9070182Y-16089204D02*
X9108277Y-16089204D01*
X9108277Y-16089204D02*
X9127325Y-16098728D01*
X9203516Y-16298728D02*
X9213039Y-16289204D01*
X9213039Y-16289204D02*
X9232087Y-16260632D01*
X9232087Y-16260632D02*
X9241611Y-16241585D01*
X9241611Y-16241585D02*
X9251135Y-16213013D01*
X9251135Y-16213013D02*
X9260658Y-16165394D01*
X9260658Y-16165394D02*
X9260658Y-16127299D01*
X9260658Y-16127299D02*
X9251135Y-16079680D01*
X9251135Y-16079680D02*
X9241611Y-16051109D01*
X9241611Y-16051109D02*
X9232087Y-16032061D01*
X9232087Y-16032061D02*
X9213039Y-16003489D01*
X9213039Y-16003489D02*
X9203516Y-15993966D01*
M02*
