%TF.GenerationSoftware,KiCad,Pcbnew,9.0.1*%
%TF.CreationDate,2025-05-15T23:51:29-04:00*%
%TF.ProjectId,sp9000-12-inch-crt-a2,73703930-3030-42d3-9132-2d696e63682d,rev?*%
%TF.SameCoordinates,Original*%
%TF.FileFunction,Soldermask,Bot*%
%TF.FilePolarity,Negative*%
%FSLAX46Y46*%
G04 Gerber Fmt 4.6, Leading zero omitted, Abs format (unit mm)*
G04 Created by KiCad (PCBNEW 9.0.1) date 2025-05-15 23:51:29*
%MOMM*%
%LPD*%
G01*
G04 APERTURE LIST*
G04 Aperture macros list*
%AMRoundRect*
0 Rectangle with rounded corners*
0 $1 Rounding radius*
0 $2 $3 $4 $5 $6 $7 $8 $9 X,Y pos of 4 corners*
0 Add a 4 corners polygon primitive as box body*
4,1,4,$2,$3,$4,$5,$6,$7,$8,$9,$2,$3,0*
0 Add four circle primitives for the rounded corners*
1,1,$1+$1,$2,$3*
1,1,$1+$1,$4,$5*
1,1,$1+$1,$6,$7*
1,1,$1+$1,$8,$9*
0 Add four rect primitives between the rounded corners*
20,1,$1+$1,$2,$3,$4,$5,0*
20,1,$1+$1,$4,$5,$6,$7,0*
20,1,$1+$1,$6,$7,$8,$9,0*
20,1,$1+$1,$8,$9,$2,$3,0*%
G04 Aperture macros list end*
%ADD10C,1.500000*%
%ADD11C,2.700000*%
%ADD12C,3.000000*%
%ADD13C,5.000000*%
%ADD14O,5.000000X3.000000*%
%ADD15O,6.000000X4.000000*%
%ADD16O,4.000000X3.000000*%
%ADD17C,3.500000*%
%ADD18RoundRect,0.250001X-1.099999X-1.099999X1.099999X-1.099999X1.099999X1.099999X-1.099999X1.099999X0*%
%ADD19O,1.600000X1.600000*%
%ADD20O,4.000000X7.000000*%
%ADD21O,7.000000X4.000000*%
G04 APERTURE END LIST*
D10*
%TO.C,*%
X76300000Y-109800000D03*
%TD*%
D11*
%TO.C,*%
X162850000Y-80600000D03*
%TD*%
D12*
%TO.C,*%
X86450000Y-94600000D03*
%TD*%
D10*
%TO.C,*%
X158850000Y-102000000D03*
%TD*%
D11*
%TO.C,*%
X51050000Y-77000000D03*
%TD*%
D10*
%TO.C,*%
X95650000Y-62400000D03*
%TD*%
%TO.C,*%
X77700000Y-118400000D03*
%TD*%
%TO.C,*%
X134850000Y-49800000D03*
%TD*%
%TO.C,*%
X175900000Y-31200000D03*
%TD*%
%TO.C,*%
X101850000Y-49600000D03*
%TD*%
%TO.C,*%
X246450000Y-74400000D03*
%TD*%
%TO.C,*%
X186050000Y-44400000D03*
%TD*%
%TO.C,*%
X62700000Y-93600000D03*
%TD*%
%TO.C,*%
X147650000Y-125000000D03*
%TD*%
%TO.C,*%
X144650000Y-41600000D03*
%TD*%
%TO.C,*%
X118100000Y-111000000D03*
%TD*%
%TO.C,*%
X234450000Y-36000000D03*
%TD*%
D13*
%TO.C,*%
X55750000Y-86050000D03*
%TD*%
D10*
%TO.C,*%
X102050000Y-34600000D03*
%TD*%
D12*
%TO.C,*%
X254050000Y-115800000D03*
%TD*%
D10*
%TO.C,*%
X124450000Y-130800000D03*
%TD*%
%TO.C,*%
X217050000Y-118800000D03*
%TD*%
%TO.C,*%
X147650000Y-99000000D03*
%TD*%
%TO.C,*%
X168450000Y-40400000D03*
%TD*%
%TO.C,*%
X120650000Y-48800000D03*
%TD*%
%TO.C,*%
X153900000Y-145600000D03*
%TD*%
%TO.C,*%
X243450000Y-63000000D03*
%TD*%
D11*
%TO.C,*%
X147650000Y-76400000D03*
%TD*%
D10*
%TO.C,*%
X133850000Y-147200000D03*
%TD*%
%TO.C,*%
X166450000Y-62800000D03*
%TD*%
%TO.C,*%
X105450000Y-40000000D03*
%TD*%
%TO.C,*%
X119650000Y-39600000D03*
%TD*%
%TO.C,*%
X120650000Y-72000000D03*
%TD*%
%TO.C,*%
X78850000Y-105000000D03*
%TD*%
%TO.C,*%
X164250000Y-90800000D03*
%TD*%
%TO.C,*%
X154050000Y-137800000D03*
%TD*%
%TO.C,*%
X213500000Y-37800000D03*
%TD*%
D12*
%TO.C,*%
X250500000Y-120000000D03*
%TD*%
D10*
%TO.C,*%
X157700000Y-99000000D03*
%TD*%
%TO.C,*%
X128850000Y-119200000D03*
%TD*%
%TO.C,*%
X64450000Y-125400000D03*
%TD*%
%TO.C,*%
X126450000Y-82000000D03*
%TD*%
%TO.C,*%
X89250000Y-69400000D03*
%TD*%
%TO.C,*%
X157850000Y-115000000D03*
%TD*%
%TO.C,*%
X215450000Y-146000000D03*
%TD*%
%TO.C,*%
X55850000Y-124000000D03*
%TD*%
%TO.C,*%
X115650000Y-51600000D03*
%TD*%
%TO.C,*%
X160700000Y-45400000D03*
%TD*%
%TO.C,*%
X202100000Y-40400000D03*
%TD*%
%TO.C,*%
X83600000Y-61680000D03*
%TD*%
%TO.C,*%
X199250000Y-121000000D03*
%TD*%
D11*
%TO.C,*%
X185700000Y-136400000D03*
%TD*%
D10*
%TO.C,*%
X154050000Y-122000000D03*
%TD*%
%TO.C,*%
X178650000Y-40400000D03*
%TD*%
%TO.C,*%
X98250000Y-57800000D03*
%TD*%
%TO.C,*%
X110700000Y-31000000D03*
%TD*%
%TO.C,*%
X233450000Y-139000000D03*
%TD*%
%TO.C,*%
X149450000Y-147200000D03*
%TD*%
%TO.C,*%
X80450000Y-113800000D03*
%TD*%
D11*
%TO.C,*%
X145450000Y-61400000D03*
%TD*%
D14*
%TO.C,*%
X84500000Y-136850000D03*
%TD*%
D10*
%TO.C,*%
X132450000Y-114000000D03*
%TD*%
%TO.C,*%
X248450000Y-84000000D03*
%TD*%
%TO.C,*%
X68500000Y-113800000D03*
%TD*%
D13*
%TO.C,*%
X94750000Y-104100000D03*
%TD*%
D10*
%TO.C,*%
X185700000Y-142200000D03*
%TD*%
%TO.C,*%
X83050000Y-83200000D03*
%TD*%
%TO.C,*%
X133500000Y-95000000D03*
%TD*%
D12*
%TO.C,*%
X253500000Y-104600000D03*
%TD*%
D10*
%TO.C,*%
X110700000Y-45200000D03*
%TD*%
%TO.C,*%
X66050000Y-79800000D03*
%TD*%
%TO.C,*%
X106850000Y-112800000D03*
%TD*%
%TO.C,*%
X100850000Y-66400000D03*
%TD*%
%TO.C,*%
X81050000Y-76000000D03*
%TD*%
%TO.C,*%
X147650000Y-115000000D03*
%TD*%
%TO.C,*%
X160700000Y-35200000D03*
%TD*%
%TO.C,*%
X129450000Y-109000000D03*
%TD*%
%TO.C,*%
X127450000Y-97800000D03*
%TD*%
%TO.C,*%
X166900000Y-112800000D03*
%TD*%
D15*
%TO.C,*%
X56150000Y-91100000D03*
%TD*%
D10*
%TO.C,*%
X197700000Y-114950000D03*
%TD*%
%TO.C,*%
X61700000Y-105200000D03*
%TD*%
%TO.C,*%
X168850000Y-95200000D03*
%TD*%
%TO.C,*%
X79050000Y-69400000D03*
%TD*%
%TO.C,*%
X141700000Y-95000000D03*
%TD*%
%TO.C,*%
X137700000Y-86600000D03*
%TD*%
%TO.C,*%
X137450000Y-91200000D03*
%TD*%
%TO.C,*%
X131050000Y-134400000D03*
%TD*%
D16*
%TO.C,*%
X194050000Y-30200000D03*
%TD*%
D10*
%TO.C,*%
X149850000Y-48400000D03*
%TD*%
%TO.C,*%
X138450000Y-28000000D03*
%TD*%
D11*
%TO.C,*%
X177850000Y-59600000D03*
%TD*%
D10*
%TO.C,*%
X219100000Y-61600000D03*
%TD*%
%TO.C,*%
X81450000Y-66400000D03*
%TD*%
D12*
%TO.C,*%
X86450000Y-108000000D03*
%TD*%
D10*
%TO.C,*%
X71300000Y-121800000D03*
%TD*%
%TO.C,*%
X177500000Y-121000000D03*
%TD*%
%TO.C,*%
X132450000Y-100000000D03*
%TD*%
%TO.C,*%
X107050000Y-98000000D03*
%TD*%
%TO.C,*%
X123250000Y-142600000D03*
%TD*%
D11*
%TO.C,*%
X48600000Y-81300000D03*
%TD*%
D10*
%TO.C,*%
X45600000Y-129190000D03*
%TD*%
%TO.C,*%
X221500000Y-33000000D03*
%TD*%
%TO.C,*%
X73300000Y-61680000D03*
%TD*%
%TO.C,*%
X160250000Y-70600000D03*
%TD*%
%TO.C,*%
X134700000Y-134400000D03*
%TD*%
%TO.C,*%
X123250000Y-94400000D03*
%TD*%
D17*
%TO.C,REF\u002A\u002A*%
X38000000Y-36300000D03*
%TD*%
D10*
%TO.C,*%
X40450000Y-124000000D03*
%TD*%
D12*
%TO.C,*%
X243900000Y-98950000D03*
%TD*%
D10*
%TO.C,*%
X140450000Y-39600000D03*
%TD*%
%TO.C,*%
X72650000Y-116750000D03*
%TD*%
%TO.C,*%
X125450000Y-51600000D03*
%TD*%
%TO.C,*%
X107100000Y-84200000D03*
%TD*%
%TO.C,*%
X114250000Y-130800000D03*
%TD*%
%TO.C,*%
X186450000Y-121000000D03*
%TD*%
%TO.C,*%
X71250000Y-86600000D03*
%TD*%
%TO.C,*%
X137500000Y-109000000D03*
%TD*%
%TO.C,*%
X96650000Y-80000000D03*
%TD*%
%TO.C,*%
X231450000Y-74400000D03*
%TD*%
%TO.C,*%
X54250000Y-50000000D03*
%TD*%
D17*
%TO.C,REF\u002A\u002A*%
X254000000Y-138000000D03*
%TD*%
D10*
%TO.C,*%
X122500000Y-32400000D03*
%TD*%
%TO.C,*%
X189050000Y-111600000D03*
%TD*%
%TO.C,*%
X72850000Y-104200000D03*
%TD*%
%TO.C,*%
X115050000Y-26000000D03*
%TD*%
%TO.C,*%
X82850000Y-118400000D03*
%TD*%
%TO.C,*%
X172250000Y-62800000D03*
%TD*%
D11*
%TO.C,*%
X39500000Y-108000000D03*
%TD*%
D10*
%TO.C,*%
X32700000Y-121400000D03*
%TD*%
%TO.C,*%
X107050000Y-80000000D03*
%TD*%
%TO.C,*%
X76700000Y-52400000D03*
%TD*%
%TO.C,*%
X61700000Y-108400000D03*
%TD*%
%TO.C,*%
X163850000Y-37800000D03*
%TD*%
%TO.C,*%
X115050000Y-35800000D03*
%TD*%
%TO.C,*%
X79850000Y-83200000D03*
%TD*%
%TO.C,*%
X147700000Y-90600000D03*
%TD*%
D11*
%TO.C,*%
X206450000Y-93200000D03*
%TD*%
D10*
%TO.C,*%
X142450000Y-124200000D03*
%TD*%
%TO.C,*%
X150050000Y-106350000D03*
%TD*%
%TO.C,*%
X71700000Y-108400000D03*
%TD*%
%TO.C,*%
X156450000Y-28000000D03*
%TD*%
%TO.C,*%
X118300000Y-35000000D03*
%TD*%
D12*
%TO.C,*%
X101700000Y-104300000D03*
%TD*%
D11*
%TO.C,*%
X210900000Y-100400000D03*
%TD*%
D10*
%TO.C,*%
X142450000Y-129400000D03*
%TD*%
%TO.C,*%
X123250000Y-111000000D03*
%TD*%
D11*
%TO.C,*%
X190450000Y-131050000D03*
%TD*%
D12*
%TO.C,*%
X86450000Y-87800000D03*
%TD*%
D10*
%TO.C,*%
X118450000Y-82000000D03*
%TD*%
%TO.C,*%
X127050000Y-39600000D03*
%TD*%
%TO.C,*%
X107100000Y-142600000D03*
%TD*%
%TO.C,*%
X114500000Y-142600000D03*
%TD*%
D11*
%TO.C,*%
X52300000Y-108000000D03*
%TD*%
D10*
%TO.C,*%
X109050000Y-136400000D03*
%TD*%
D17*
%TO.C,REF\u002A\u002A*%
X38000000Y-138000000D03*
%TD*%
D10*
%TO.C,*%
X122250000Y-126800000D03*
%TD*%
%TO.C,*%
X117300000Y-136400000D03*
%TD*%
%TO.C,*%
X134700000Y-129400000D03*
%TD*%
%TO.C,*%
X142500000Y-134400000D03*
%TD*%
%TO.C,*%
X95700000Y-83150000D03*
%TD*%
%TO.C,*%
X100850000Y-62400000D03*
%TD*%
%TO.C,*%
X226250000Y-85600000D03*
%TD*%
%TO.C,*%
X87450000Y-58600000D03*
%TD*%
%TO.C,*%
X81300000Y-109800000D03*
%TD*%
%TO.C,*%
X120900000Y-134400000D03*
%TD*%
%TO.C,*%
X206650000Y-106200000D03*
%TD*%
%TO.C,*%
X142450000Y-119200000D03*
%TD*%
%TO.C,*%
X96700000Y-118200000D03*
%TD*%
D12*
%TO.C,*%
X254850000Y-110400000D03*
%TD*%
D10*
%TO.C,*%
X73850000Y-113800000D03*
%TD*%
D14*
%TO.C,*%
X99900000Y-136800000D03*
%TD*%
D10*
%TO.C,*%
X64450000Y-116800000D03*
%TD*%
%TO.C,*%
X90250000Y-123800000D03*
%TD*%
%TO.C,*%
X180850000Y-34800000D03*
%TD*%
D12*
%TO.C,*%
X249500000Y-100800000D03*
%TD*%
D10*
%TO.C,*%
X166450000Y-48000000D03*
%TD*%
D11*
%TO.C,*%
X147700000Y-82000000D03*
%TD*%
D10*
%TO.C,*%
X153650000Y-95150000D03*
%TD*%
%TO.C,*%
X142850000Y-89050000D03*
%TD*%
%TO.C,*%
X160450000Y-124800000D03*
%TD*%
%TO.C,*%
X118450000Y-76200000D03*
%TD*%
D18*
%TO.C,REF\u002A\u002A*%
X94321242Y-73200000D03*
D11*
X98281242Y-73200000D03*
X102241242Y-73200000D03*
%TD*%
D10*
%TO.C,*%
X242050000Y-141200000D03*
%TD*%
D19*
%TO.C,*%
X97100000Y-98000000D03*
%TD*%
D11*
%TO.C,*%
X198250000Y-59600000D03*
%TD*%
D10*
%TO.C,*%
X152450000Y-90600000D03*
%TD*%
%TO.C,*%
X234450000Y-44200000D03*
%TD*%
%TO.C,*%
X207250000Y-127400000D03*
%TD*%
%TO.C,*%
X180850000Y-91400000D03*
%TD*%
%TO.C,*%
X154850000Y-106350000D03*
%TD*%
D12*
%TO.C,*%
X86500000Y-101000000D03*
%TD*%
D11*
%TO.C,*%
X45550000Y-101800000D03*
%TD*%
D10*
%TO.C,*%
X134700000Y-55800000D03*
%TD*%
D11*
%TO.C,*%
X166850000Y-136200000D03*
%TD*%
D10*
%TO.C,*%
X66650000Y-105200000D03*
%TD*%
%TO.C,*%
X107100000Y-123800000D03*
%TD*%
%TO.C,*%
X182050000Y-117400000D03*
%TD*%
%TO.C,*%
X90650000Y-55600000D03*
%TD*%
%TO.C,*%
X128850000Y-114000000D03*
%TD*%
D11*
%TO.C,*%
X87650000Y-44800000D03*
%TD*%
D10*
%TO.C,*%
X120500000Y-53800000D03*
%TD*%
%TO.C,*%
X120650000Y-45200000D03*
%TD*%
%TO.C,*%
X120650000Y-89800000D03*
%TD*%
%TO.C,*%
X140850000Y-35600000D03*
%TD*%
%TO.C,*%
X101950000Y-142600000D03*
%TD*%
D16*
%TO.C,*%
X194050000Y-50000000D03*
%TD*%
D11*
%TO.C,*%
X45900000Y-77200000D03*
%TD*%
D10*
%TO.C,*%
X101850000Y-44600000D03*
%TD*%
%TO.C,*%
X231450000Y-67600000D03*
%TD*%
%TO.C,*%
X204050000Y-74600000D03*
%TD*%
D13*
%TO.C,*%
X48950000Y-62400000D03*
%TD*%
D10*
%TO.C,*%
X178450000Y-111600000D03*
%TD*%
%TO.C,*%
X81650000Y-80400000D03*
%TD*%
%TO.C,*%
X72850000Y-99000000D03*
%TD*%
D12*
%TO.C,*%
X101750000Y-90950000D03*
%TD*%
D10*
%TO.C,*%
X86050000Y-76000000D03*
%TD*%
%TO.C,*%
X124700000Y-35600000D03*
%TD*%
D18*
%TO.C,REF\u002A\u002A*%
X46800000Y-144800000D03*
D11*
X50760000Y-144800000D03*
X54720000Y-144800000D03*
X58680000Y-144800000D03*
X62640000Y-144800000D03*
X66600000Y-144800000D03*
X70560000Y-144800000D03*
X74520000Y-144800000D03*
X78480000Y-144800000D03*
%TD*%
D10*
%TO.C,*%
X106850000Y-34600000D03*
%TD*%
%TO.C,*%
X71800000Y-71000000D03*
%TD*%
%TO.C,*%
X93650000Y-113600000D03*
%TD*%
%TO.C,*%
X206700000Y-119400000D03*
%TD*%
%TO.C,*%
X246500000Y-67600000D03*
%TD*%
%TO.C,*%
X222900000Y-113400000D03*
%TD*%
D13*
%TO.C,*%
X94900000Y-90800000D03*
%TD*%
D10*
%TO.C,*%
X107100000Y-103000000D03*
%TD*%
%TO.C,*%
X159250000Y-90600000D03*
%TD*%
D11*
%TO.C,*%
X125450000Y-61400000D03*
%TD*%
D14*
%TO.C,*%
X92350000Y-139050000D03*
%TD*%
D10*
%TO.C,*%
X77450000Y-58600000D03*
%TD*%
%TO.C,*%
X161850000Y-83800000D03*
%TD*%
D11*
%TO.C,*%
X118050000Y-69000000D03*
%TD*%
D10*
%TO.C,*%
X173850000Y-37750000D03*
%TD*%
%TO.C,*%
X180850000Y-31200000D03*
%TD*%
%TO.C,*%
X114100000Y-114600000D03*
%TD*%
%TO.C,*%
X141850000Y-143200000D03*
%TD*%
%TO.C,*%
X218700000Y-139000000D03*
%TD*%
%TO.C,*%
X72500000Y-93600000D03*
%TD*%
%TO.C,*%
X122250000Y-86600000D03*
%TD*%
D11*
%TO.C,*%
X46850000Y-32600000D03*
%TD*%
D10*
%TO.C,*%
X204100000Y-62000000D03*
%TD*%
%TO.C,*%
X162850000Y-115000000D03*
%TD*%
%TO.C,*%
X213450000Y-45000000D03*
%TD*%
%TO.C,*%
X69300000Y-75600000D03*
%TD*%
%TO.C,*%
X32700000Y-47600000D03*
%TD*%
%TO.C,*%
X222250000Y-51800000D03*
%TD*%
D11*
%TO.C,*%
X183250000Y-85200000D03*
%TD*%
%TO.C,*%
X175450000Y-80600000D03*
%TD*%
%TO.C,*%
X93050000Y-32600000D03*
%TD*%
D10*
%TO.C,*%
X66050000Y-66400000D03*
%TD*%
%TO.C,*%
X212900000Y-115000000D03*
%TD*%
%TO.C,*%
X122250000Y-103000000D03*
%TD*%
%TO.C,*%
X202100000Y-35800000D03*
%TD*%
%TO.C,*%
X132450000Y-119200000D03*
%TD*%
%TO.C,*%
X142450000Y-104800000D03*
%TD*%
%TO.C,*%
X127250000Y-103000000D03*
%TD*%
%TO.C,*%
X152450000Y-99000000D03*
%TD*%
%TO.C,*%
X93700000Y-120400000D03*
%TD*%
%TO.C,*%
X164650000Y-121000000D03*
%TD*%
%TO.C,*%
X85450000Y-66400000D03*
%TD*%
%TO.C,*%
X163650000Y-43000000D03*
%TD*%
%TO.C,*%
X147700000Y-143200000D03*
%TD*%
%TO.C,*%
X74300000Y-75600000D03*
%TD*%
%TO.C,*%
X123050000Y-76200000D03*
%TD*%
%TO.C,*%
X127450000Y-126800000D03*
%TD*%
%TO.C,*%
X129450000Y-91200000D03*
%TD*%
%TO.C,*%
X219050000Y-71400000D03*
%TD*%
%TO.C,*%
X60500000Y-132600000D03*
%TD*%
%TO.C,*%
X122250000Y-119200000D03*
%TD*%
%TO.C,*%
X144850000Y-49800000D03*
%TD*%
%TO.C,*%
X154650000Y-48400000D03*
%TD*%
%TO.C,*%
X217050000Y-103200000D03*
%TD*%
D20*
%TO.C,*%
X255850000Y-50550000D03*
%TD*%
D10*
%TO.C,*%
X184450000Y-111600000D03*
%TD*%
%TO.C,*%
X196450000Y-91400000D03*
%TD*%
%TO.C,*%
X79100000Y-91000000D03*
%TD*%
%TO.C,*%
X233450000Y-84000000D03*
%TD*%
%TO.C,*%
X208450000Y-84800000D03*
%TD*%
%TO.C,*%
X172250000Y-48000000D03*
%TD*%
%TO.C,*%
X180850000Y-45000000D03*
%TD*%
%TO.C,*%
X154300000Y-131200000D03*
%TD*%
%TO.C,*%
X142450000Y-100000000D03*
%TD*%
%TO.C,*%
X165850000Y-74600000D03*
%TD*%
D11*
%TO.C,*%
X180450000Y-131000000D03*
%TD*%
D10*
%TO.C,*%
X74300000Y-56800000D03*
%TD*%
%TO.C,*%
X130450000Y-43800000D03*
%TD*%
%TO.C,*%
X128900000Y-142600000D03*
%TD*%
%TO.C,*%
X110650000Y-26000000D03*
%TD*%
%TO.C,*%
X219250000Y-146000000D03*
%TD*%
%TO.C,*%
X81250000Y-96000000D03*
%TD*%
%TO.C,*%
X132650000Y-35600000D03*
%TD*%
%TO.C,*%
X74650000Y-125400000D03*
%TD*%
%TO.C,*%
X208450000Y-74600000D03*
%TD*%
D11*
%TO.C,*%
X135450000Y-69000000D03*
%TD*%
D18*
%TO.C,REF\u002A\u002A*%
X190881242Y-80400000D03*
D11*
X194841242Y-80400000D03*
X198801242Y-80400000D03*
%TD*%
D12*
%TO.C,*%
X238450000Y-100200000D03*
%TD*%
D10*
%TO.C,*%
X85450000Y-120600000D03*
%TD*%
%TO.C,*%
X124300000Y-98000000D03*
%TD*%
%TO.C,*%
X129850000Y-104850000D03*
%TD*%
%TO.C,*%
X118450000Y-94200000D03*
%TD*%
%TO.C,*%
X243450000Y-84000000D03*
%TD*%
%TO.C,*%
X175900000Y-74600000D03*
%TD*%
%TO.C,*%
X222850000Y-98400000D03*
%TD*%
%TO.C,*%
X155050000Y-70600000D03*
%TD*%
%TO.C,*%
X136500000Y-147200000D03*
%TD*%
%TO.C,*%
X217050000Y-115600000D03*
%TD*%
%TO.C,*%
X130450000Y-39600000D03*
%TD*%
%TO.C,*%
X124250000Y-114600000D03*
%TD*%
%TO.C,*%
X142450000Y-114000000D03*
%TD*%
%TO.C,*%
X124850000Y-122200000D03*
%TD*%
%TO.C,*%
X85650000Y-113600000D03*
%TD*%
%TO.C,*%
X89250000Y-52600000D03*
%TD*%
%TO.C,*%
X172850000Y-142000000D03*
%TD*%
D11*
%TO.C,*%
X130450000Y-82000000D03*
%TD*%
D10*
%TO.C,*%
X193700000Y-95400000D03*
%TD*%
%TO.C,*%
X76450000Y-86600000D03*
%TD*%
%TO.C,*%
X96850000Y-112600000D03*
%TD*%
%TO.C,*%
X50700000Y-129200000D03*
%TD*%
%TO.C,*%
X136250000Y-35600000D03*
%TD*%
%TO.C,*%
X152450000Y-82800000D03*
%TD*%
D20*
%TO.C,*%
X255950000Y-73950000D03*
%TD*%
D12*
%TO.C,*%
X234300000Y-103800000D03*
%TD*%
D10*
%TO.C,*%
X81300000Y-121800000D03*
%TD*%
%TO.C,*%
X160450000Y-128200000D03*
%TD*%
%TO.C,*%
X88050000Y-63200000D03*
%TD*%
%TO.C,*%
X173850000Y-42800000D03*
%TD*%
%TO.C,*%
X154650000Y-35800000D03*
%TD*%
%TO.C,*%
X69300000Y-56800000D03*
%TD*%
%TO.C,*%
X134650000Y-124200000D03*
%TD*%
%TO.C,*%
X168850000Y-102000000D03*
%TD*%
%TO.C,*%
X69850000Y-83200000D03*
%TD*%
%TO.C,*%
X120450000Y-106600000D03*
%TD*%
%TO.C,*%
X226250000Y-146000000D03*
%TD*%
D11*
%TO.C,*%
X46900000Y-44800000D03*
%TD*%
D15*
%TO.C,*%
X38450000Y-54800000D03*
%TD*%
D10*
%TO.C,*%
X114100000Y-98050000D03*
%TD*%
%TO.C,*%
X100250000Y-123800000D03*
%TD*%
D11*
%TO.C,*%
X165700000Y-85200000D03*
%TD*%
D10*
%TO.C,*%
X147650000Y-122000000D03*
%TD*%
%TO.C,*%
X177850000Y-105200000D03*
%TD*%
D11*
%TO.C,*%
X161650000Y-131200000D03*
%TD*%
D10*
%TO.C,*%
X107050000Y-119400000D03*
%TD*%
%TO.C,*%
X184450000Y-101200000D03*
%TD*%
D11*
%TO.C,*%
X171900000Y-131200000D03*
%TD*%
D10*
%TO.C,*%
X154450000Y-41600000D03*
%TD*%
%TO.C,*%
X147650000Y-128200000D03*
%TD*%
%TO.C,*%
X180850000Y-95400000D03*
%TD*%
%TO.C,*%
X177850000Y-100600000D03*
%TD*%
%TO.C,*%
X147650000Y-133400000D03*
%TD*%
%TO.C,*%
X171850000Y-117400000D03*
%TD*%
%TO.C,*%
X119900000Y-142600000D03*
%TD*%
%TO.C,*%
X115700000Y-40000000D03*
%TD*%
D17*
%TO.C,REF\u002A\u002A*%
X254000000Y-36300000D03*
%TD*%
D11*
%TO.C,*%
X127450000Y-76200000D03*
%TD*%
D10*
%TO.C,*%
X186100000Y-52950000D03*
%TD*%
D13*
%TO.C,*%
X38900000Y-60400000D03*
%TD*%
D10*
%TO.C,*%
X138450000Y-43800000D03*
%TD*%
D21*
%TO.C,*%
X249700000Y-48550000D03*
%TD*%
D10*
%TO.C,*%
X226300000Y-98400000D03*
%TD*%
%TO.C,*%
X76650000Y-96000000D03*
%TD*%
%TO.C,*%
X162850000Y-99000000D03*
%TD*%
%TO.C,*%
X207300000Y-135450000D03*
%TD*%
%TO.C,*%
X186050000Y-36400000D03*
%TD*%
D11*
%TO.C,*%
X215050000Y-93200000D03*
%TD*%
D10*
%TO.C,*%
X178450000Y-53000000D03*
%TD*%
%TO.C,*%
X101850000Y-118200000D03*
%TD*%
%TO.C,*%
X110650000Y-51600000D03*
%TD*%
%TO.C,*%
X118050000Y-30000000D03*
%TD*%
%TO.C,*%
X144500000Y-35600000D03*
%TD*%
%TO.C,*%
X70700000Y-132600000D03*
%TD*%
%TO.C,*%
X145450000Y-65400000D03*
%TD*%
%TO.C,*%
X70650000Y-50000000D03*
%TD*%
%TO.C,*%
X80650000Y-55600000D03*
%TD*%
%TO.C,*%
X117250000Y-123800000D03*
%TD*%
%TO.C,*%
X151100000Y-55800000D03*
%TD*%
M02*
